<svg width="auto" height="94px" viewBox="0 0 114.741 40" fill="none" xmlns="http://www.w3.org/2000/svg">
    <g fill="#0686F9">
        <path d="M19.973 6.658c-7.355 0-13.316 5.962-13.316 13.317 0 7.354 5.961 13.316 13.316 13.316 7.354 0 13.316-5.962 13.316-13.316 0-7.355-5.962-13.317-13.316-13.317zm6.043 21.607a2.294 2.294 0 0 1-2.287-2.129l-7.84-1.932a1.515 1.515 0 0 1-2.651-1.007 1.516 1.516 0 0 1 1.968-1.449l7.181-7.16-6.232.47a2.294 2.294 0 1 1-2.228-2.837c.959 0 1.78.59 2.122 1.425l6.799-.511a1.517 1.517 0 1 1 .939 2.052l-7.585 7.562c.009.027.015.054.021.081l7.839 1.932a2.29 2.29 0 0 1 1.948-1.087 2.295 2.295 0 0 1 0 4.59h.006zM50.808 12.481a1.664 1.664 0 1 0 0-3.328 1.664 1.664 0 0 0 0 3.328zM55.214 10.816a1.664 1.664 0 1 0 0-3.328 1.664 1.664 0 0 0 0 3.328zM107.688 20.598a.395.395 0 0 0 .395-.396v-2.538a.395.395 0 0 0-.395-.395h-7.391v-3.124h4.884a.395.395 0 0 0 .395-.395v-2.539a.395.395 0 0 0-.395-.395H93.59a.395.395 0 0 0-.395.395v2.539c0 .218.177.395.395.395h3.376v3.124H93.59a.395.395 0 0 0-.395.395v2.538c0 .219.177.396.395.396h3.376v3.777a5.09 5.09 0 0 0 5.091 5.091h5.629a.395.395 0 0 0 .395-.395v-2.539a.395.395 0 0 0-.395-.395h-5.629a1.762 1.762 0 0 1-1.762-1.762v-3.777h7.393zM51.044 21.095l2.336.993a.398.398 0 0 0 .524-.222c1.235-3.104 1.25-5.652 1.25-5.764v-1.268a.396.396 0 0 0-.396-.396h-8.605v-3.225a.395.395 0 0 0-.395-.395h-2.539a.395.395 0 0 0-.395.395v3.225h-2.481a.396.396 0 0 0-.396.396v2.538c0 .219.177.395.396.395h2.481v6.609a5.091 5.091 0 0 0 5.092 5.092h5.816a.395.395 0 0 0 .395-.396v-2.538a.395.395 0 0 0-.395-.395h-5.816a1.763 1.763 0 0 1-1.763-1.763v-6.609h5.48c-.14.773-.384 1.755-.803 2.821a.395.395 0 0 0 .214.507zM89.626 19.098c-.759-.408-2.617-1.345-4.558-1.866a32.113 32.113 0 0 0-2.94-.625v-5.393a.396.396 0 0 0-.396-.395h-2.538a.395.395 0 0 0-.395.395v17.858c0 .219.176.396.395.396h2.538a.396.396 0 0 0 .396-.396v-9.085a27.42 27.42 0 0 1 2.079.461c1.554.416 3.112 1.195 3.777 1.547.188.1.421.032.527-.151l1.269-2.201a.394.394 0 0 0-.154-.545zM72.913 17.138l-1.448-2.086a.394.394 0 0 0-.537-.109c-.635.407-2.128 1.304-3.612 1.782-.977.316-2.165.544-3.152.698v-6.209a.395.395 0 0 0-.395-.395H61.23a.395.395 0 0 0-.395.395v13.164a5.09 5.09 0 0 0 5.091 5.091h5.818a.394.394 0 0 0 .394-.395v-2.538a.395.395 0 0 0-.394-.396h-5.818a1.762 1.762 0 0 1-1.762-1.762V20.79c1.194-.17 2.816-.457 4.174-.895 1.909-.615 3.731-1.723 4.465-2.198a.394.394 0 0 0 .109-.556l.001-.003z"></path>
    </g>
</svg>